<?xml version="1.0" encoding="UTF-8" standalone="no"?>
<!-- Created with Inkscape (http://www.inkscape.org/) -->

<svg
   width="1500"
   height="1354.9915"
   id="svg2"
   version="1.1"
   inkscape:version="1.2.2 (b0a8486541, 2022-12-01)"
   sodipodi:docname="title-kubecon.svg"
   inkscape:export-filename="../../../Downloads/kubecon-famf-with-words.png"
   inkscape:export-xdpi="90"
   inkscape:export-ydpi="90"
   xml:space="preserve"
   xmlns:inkscape="http://www.inkscape.org/namespaces/inkscape"
   xmlns:sodipodi="http://sodipodi.sourceforge.net/DTD/sodipodi-0.dtd"
   xmlns="http://www.w3.org/2000/svg"
   xmlns:svg="http://www.w3.org/2000/svg"
   xmlns:rdf="http://www.w3.org/1999/02/22-rdf-syntax-ns#"
   xmlns:cc="http://creativecommons.org/ns#"
   xmlns:dc="http://purl.org/dc/elements/1.1/"><defs
     id="defs4" /><sodipodi:namedview
     id="base"
     pagecolor="#ffa0ff"
     bordercolor="#666666"
     borderopacity="1.0"
     inkscape:pageopacity="0"
     inkscape:pageshadow="2"
     inkscape:zoom="0.53125"
     inkscape:cx="1169.8823"
     inkscape:cy="576.94117"
     inkscape:document-units="px"
     inkscape:current-layer="layer1"
     showgrid="false"
     inkscape:window-width="1795"
     inkscape:window-height="1114"
     inkscape:window-x="73"
     inkscape:window-y="40"
     inkscape:window-maximized="0"
     inkscape:snap-global="false"
     fit-margin-top="10"
     fit-margin-left="10"
     fit-margin-right="10"
     fit-margin-bottom="10"
     inkscape:showpageshadow="2"
     inkscape:pagecheckerboard="0"
     inkscape:deskcolor="#d1d1d1" /><metadata
     id="metadata7"><rdf:RDF><cc:Work
         rdf:about=""><dc:format>image/svg+xml</dc:format><dc:type
           rdf:resource="http://purl.org/dc/dcmitype/StillImage" /></cc:Work></rdf:RDF></metadata><g
     inkscape:label="Layer 1"
     inkscape:groupmode="layer"
     id="layer1"
     transform="translate(208.01021,872.55529)"><g
       id="g16755"
       transform="translate(-32.167063)"><g
         id="g16002"
         transform="rotate(-2.1928892,-18951.631,2070.7333)"><g
           id="g15984"
           transform="rotate(-3.1858027,3922.7337,14050.987)"><text
             xml:space="preserve"
             style="font-size:240px;line-height:1.25;font-family:Aegean;-inkscape-font-specification:Aegean;fill:#326ce5;fill-opacity:1;stroke:#ffffff;stroke-width:20;stroke-dasharray:none;stroke-opacity:1"
             x="810.03217"
             y="-10.426503"
             id="text1208"><tspan
               sodipodi:role="line"
               id="tspan1206"
               x="810.03217"
               y="-10.426503"
               style="font-style:normal;font-variant:normal;font-weight:bold;font-stretch:normal;font-size:240px;font-family:Ubuntu;-inkscape-font-specification:'Ubuntu Bold';fill:#326ce5;fill-opacity:1;stroke:#ffffff;stroke-width:20;stroke-dasharray:none;stroke-opacity:1">KubeCon</tspan></text><text
             xml:space="preserve"
             style="font-size:240px;line-height:1.25;font-family:Aegean;-inkscape-font-specification:Aegean;fill:#326ce5;fill-opacity:1;stroke:none;stroke-width:10;stroke-dasharray:none;stroke-opacity:1"
             x="810.03217"
             y="-10.426493"
             id="text1208-3"><tspan
               sodipodi:role="line"
               id="tspan1206-6"
               x="810.03217"
               y="-10.426493"
               style="font-style:normal;font-variant:normal;font-weight:bold;font-stretch:normal;font-size:240px;font-family:Ubuntu;-inkscape-font-specification:'Ubuntu Bold';fill:#326ce5;fill-opacity:1;stroke:none;stroke-width:10;stroke-dasharray:none;stroke-opacity:1">KubeCon</tspan></text></g><g
           id="g15990"
           transform="rotate(-3.1858027,13480.619,16981.211)"><text
             xml:space="preserve"
             style="font-size:240px;line-height:1.25;font-family:Aegean;-inkscape-font-specification:Aegean;fill:#326ce5;fill-opacity:1;stroke:#ffffff;stroke-width:20;stroke-dasharray:none;stroke-opacity:1"
             x="850.68201"
             y="425.53314"
             id="text1208-3-7-3"><tspan
               sodipodi:role="line"
               id="tspan1206-6-5-5"
               x="850.68201"
               y="425.53314"
               style="font-style:normal;font-variant:normal;font-weight:bold;font-stretch:normal;font-size:240px;font-family:Ubuntu;-inkscape-font-specification:'Ubuntu Bold';fill:#326ce5;fill-opacity:1;stroke:#ffffff;stroke-width:20;stroke-dasharray:none;stroke-opacity:1">Family Feud</tspan></text><text
             xml:space="preserve"
             style="font-size:240px;line-height:1.25;font-family:Aegean;-inkscape-font-specification:Aegean;fill:#326ce5;fill-opacity:1;stroke:none;stroke-width:10;stroke-dasharray:none;stroke-opacity:1"
             x="850.68201"
             y="425.53314"
             id="text1208-3-7"><tspan
               sodipodi:role="line"
               id="tspan1206-6-5"
               x="850.68201"
               y="425.53314"
               style="font-style:normal;font-variant:normal;font-weight:bold;font-stretch:normal;font-size:240px;font-family:Ubuntu;-inkscape-font-specification:'Ubuntu Bold';fill:#326ce5;fill-opacity:1;stroke:none;stroke-width:10;stroke-dasharray:none;stroke-opacity:1">Family Feud</tspan></text></g></g><g
         id="g16012"
         transform="translate(102.71374,-728.59098)"><path
           style="fill:#ffffff;fill-opacity:1;stroke:none;stroke-width:0;stroke-miterlimit:4;stroke-dasharray:none;stroke-opacity:1"
           d="m 369.40071,158.69816 a 49.326504,48.920256 0 0 0 -18.90337,4.78332 L 92.547184,286.72625 a 49.326504,48.920256 0 0 0 -26.68905,33.18637 L 2.2200935,596.75153 a 49.326504,48.920256 0 0 0 6.697,37.50785 49.326504,48.920256 0 0 0 2.8041705,3.89263 L 190.26408,860.13116 a 49.326504,48.920256 0 0 0 38.56551,18.40755 l 286.3217,-0.066 A 49.326504,48.920256 0 0 0 553.7168,860.09816 L 732.19363,638.08601 a 49.326504,48.920256 0 0 0 9.53416,-41.40048 L 677.99077,319.84662 A 49.326504,48.920256 0 0 0 651.30172,286.66026 L 393.31858,163.48146 a 49.326504,48.920256 0 0 0 -23.91787,-4.78332 z"
           id="path3055-3"
           inkscape:connector-curvature="0"
           inkscape:export-filename="new.png"
           inkscape:export-xdpi="250.55"
           inkscape:export-ydpi="250.55" /><path
           style="fill:#326ce5;fill-opacity:1;stroke:none;stroke-width:0;stroke-miterlimit:4;stroke-dasharray:none;stroke-opacity:1"
           d="m 369.53875,177.69828 a 46.724621,46.342246 0 0 0 -17.90625,4.53125 l -244.34376,116.75 a 46.724621,46.342246 0 0 0 -25.28125,31.4375 l -60.28125,262.25 a 46.724621,46.342246 0 0 0 6.34375,35.53125 46.724621,46.342246 0 0 0 2.65625,3.6875 l 169.12501,210.28125 a 46.724621,46.342246 0 0 0 36.53125,17.4375 l 271.21875,-0.0625 A 46.724621,46.342246 0 0 0 544.1325,842.13578 L 713.195,631.82328 a 46.724621,46.342246 0 0 0 9.03125,-39.21875 l -60.375,-262.25 A 46.724621,46.342246 0 0 0 636.57,298.91703 L 392.195,182.22953 a 46.724621,46.342246 0 0 0 -22.65625,-4.53125 z"
           id="path3055"
           inkscape:connector-curvature="0"
           inkscape:export-filename="new.png"
           inkscape:export-xdpi="250.55"
           inkscape:export-ydpi="250.55" /><path
           id="path2330"
           style="opacity:1;fill:#ffffff;fill-opacity:1;stroke:none;stroke-width:0.778961px;stroke-linecap:butt;stroke-linejoin:miter;stroke-opacity:1"
           d="m 347.24545,236.7332 c -4.97068,-0.15837 -10.99974,3.40508 -15.79384,6.07803 l -114.0798,65.53473 c -16.74877,10.18625 -25.28636,17.2924 -30.82074,35.82159 L 141.91595,541.6922 c -6.44804,26.45953 -9.54714,34.72115 26.6505,25.55663 l 81.70279,-17.64227 c -2.9961,-28.90221 4.50265,-57.05105 19.7997,-80.0718 l -3.01852,-2.69592 c -0.19245,-1.17465 -0.44517,-3.8901 -1.89111,-5.43145 -3.70299,-3.4767 -8.37034,-6.36133 -14.00161,-9.83895 -2.6728,-1.57232 -5.12363,-2.58509 -7.8063,-4.56575 -0.57059,-0.42128 -1.33118,-1.06689 -1.95194,-1.5701 -0.0455,-0.0357 -0.0943,-0.0638 -0.13995,-0.10044 -4.5173,-3.60164 -5.55569,-9.81558 -2.31409,-13.88134 1.82341,-2.28701 4.61064,-3.41882 7.50508,-3.31972 2.25116,0.0771 4.58089,0.89808 6.55724,2.4738 0.64218,0.50809 1.51953,1.17669 2.09345,1.67052 2.52796,2.17456 4.06757,4.32261 6.1952,6.57858 4.6436,4.71613 8.48276,8.63208 12.69618,11.46837 2.21297,1.2889 3.91164,0.77016 5.59265,0.54315 0.54106,0.39971 2.35893,1.70355 3.39888,2.41296 16.02546,-17.00292 37.0751,-29.59522 61.52284,-35.14609 4.14727,-0.94163 8.29276,-1.57775 12.42981,-2.0752 L 356.6888,252.98487 c -0.56015,-12.21371 -4.47279,-16.09333 -9.44335,-16.25171 z m 47.09981,64.97333 c -4.45092,0.41633 -7.05635,4.70748 -7.08377,16.71117 l -0.19622,97.69885 c 28.09933,3.62806 54.03963,16.95916 73.36397,37.22281 l 3.57979,-2.55444 c 1.21354,0.0715 3.88866,0.43916 5.71441,-0.62379 4.2133,-2.83651 8.05135,-6.77179 12.69462,-11.48816 2.12774,-2.25607 3.68878,-4.40388 6.21651,-6.57858 0.57725,-0.4965 1.44916,-1.16137 2.092,-1.6705 4.51641,-3.60287 10.79985,-3.21906 14.04257,0.8459 3.24272,4.06493 2.20398,10.27848 -2.31254,13.88134 -0.63717,0.51256 -1.46558,1.22258 -2.07213,1.6705 -2.68245,1.98081 -5.15348,2.9933 -7.82616,4.56576 -5.63117,3.47794 -10.30041,6.36204 -14.00305,9.83896 -1.74939,1.87066 -1.6182,3.6416 -1.77092,5.33102 -0.52219,0.47985 -2.36403,2.11048 -3.3395,2.99718 8.11551,12.07936 14.20061,25.78942 17.64377,40.77987 3.03839,13.22738 3.78046,26.44582 2.51642,39.25542 l 81.77882,17.65899 c 36.19775,9.16452 33.09853,0.9029 26.6505,-25.55663 L 570.98242,399.3856 c -5.18777,-17.83986 -1.47003,-13.80584 -27.60755,-27.12825 L 412.49869,308.24403 c -7.40575,-3.49478 -13.7025,-6.95385 -18.15343,-6.5375 z m -37.37033,139.2729 c -2.30277,0.34964 -4.6072,0.75096 -6.91485,1.27494 -18.34776,4.16587 -34.26812,13.21097 -46.71491,25.45015 l 40.4984,28.709 0.081,-0.0411 c 1.3717,1.00203 3.05937,1.58987 4.88822,1.58987 4.34027,0 7.87111,-3.34215 8.23848,-7.58727 z m 30.04173,0.0928 -0.10211,50.66751 c 0.29334,1.03014 0.71897,2.03095 1.43007,2.92264 2.78367,3.49023 7.81639,4.13745 11.38786,1.529 l 0.13995,0.0608 40.23669,-28.52795 C 425.7205,453.63386 407.15309,444.26308 387.01654,441.07217 Z m -98.35767,45.08089 c -10.44124,17.00978 -15.57152,37.25564 -13.97564,58.18024 l 44.88307,-9.69138 2.73095,-0.78809 0.04,-0.16126 c 1.63862,-0.44777 3.16514,-1.40755 4.30553,-2.83744 2.78356,-3.49066 2.291,-8.52578 -1.04672,-11.4273 l 0.04,-0.20083 z m 166.19725,0.0213 -36.77544,32.91267 0.0189,0.10044 c -1.28201,1.11448 -2.22962,2.62295 -2.63661,4.406 -0.99301,4.35258 1.62951,8.69129 5.89554,9.85722 l 0.0411,0.20234 4.78478,1.37841 43.03157,9.29124 c 0.62087,-9.32913 -0.0222,-18.90782 -2.22885,-28.51578 -2.47657,-10.78245 -6.63793,-20.72752 -12.13169,-29.63251 z m -41.9863,75.88489 c -1.07292,0.0543 -2.14849,0.32862 -3.17823,0.8246 -4.02374,1.93729 -5.77246,6.70167 -4.02418,10.76398 l -0.0611,0.0807 19.03278,45.97093 c 17.6178,-11.22351 30.91276,-27.8043 38.30007,-46.95376 -20.20169,-4.59305 -29.50787,-6.70784 -43.13657,-9.81005 l -4.94149,-0.83526 -0.081,0.10044 c -0.62652,-0.11536 -1.26703,-0.17397 -1.91087,-0.14148 z m -82.34474,0.20082 c -0.53463,-0.008 -1.08579,0.0414 -1.62952,0.1415 l -0.081,-0.10045 -7.95701,1.35101 c -9.54758,2.14823 -25.34608,5.74549 -39.78786,8.99914 7.674,19.77917 21.27061,35.95991 38.26799,46.86703 l 18.83201,-45.50841 -0.14151,-0.18104 c 0.67169,-1.5604 0.86958,-3.3274 0.46248,-5.11043 -0.86936,-3.80866 -4.22451,-6.40588 -7.966,-6.45838 z m -73.78384,15.89418 c -52.4079,11.81947 -86.54273,19.44785 -127.57176,28.85354 -36.356116,8.23872 -33.381887,20.48593 -12.4954,48.33823 l 100.47242,126.32874 c 21.12733,24.0381 23.44819,29.35258 57.43773,29.48796 h 93.12561 8.53049 93.1255 c 33.98965,-0.13538 36.31051,-5.44986 57.43784,-29.48796 L 627.2761,655.34607 c 20.8866,-27.8523 23.86061,-40.09951 -12.49529,-48.33823 0.12785,0.21991 -63.88866,-14.27717 -127.58852,-28.74553 -9.4781,26.76785 -28.10422,49.85457 -52.99835,64.55342 0.44983,1.08554 1.21354,3.39335 1.57014,3.80201 -0.59534,1.58839 -1.48834,3.10895 -0.72419,5.55314 1.82785,4.73897 4.78322,9.37141 8.34802,14.94785 1.72597,2.5763 3.49189,4.55519 5.04959,7.5036 0.37281,0.7055 0.86759,1.78906 1.22763,2.53467 2.42119,5.17694 0.64517,11.14024 -4.00275,13.37928 -4.68456,2.25675 -10.50962,-0.12608 -13.01716,-5.33102 -0.35826,-0.73724 -0.86281,-1.71793 -1.16692,-2.41448 -1.33418,-3.05602 -1.79744,-5.67525 -2.7355,-8.63096 -2.13773,-6.26381 -3.89266,-11.44977 -6.45836,-15.83332 -1.43462,-2.12135 -3.19621,-2.39325 -4.80919,-2.91806 -0.29867,-0.51458 -1.41209,-2.55784 -2.01131,-3.62094 -5.20143,1.9655 -10.58254,3.60309 -16.15588,4.8685 -24.43065,5.54703 -48.88571,3.2974 -70.73491,-5.08911 l -2.13306,3.86286 c -1.58723,0.42498 -3.11841,0.85596 -4.05748,1.9763 -3.4294,4.09134 -4.79798,10.65731 -7.2892,16.91504 -0.93807,2.95576 -1.38157,5.57488 -2.71564,8.63096 -0.30189,0.69167 -0.80899,1.65761 -1.16692,2.39317 v 0.0198 c 0,0.007 -0.0111,0.014 -0.0189,0.0213 -2.51298,5.18808 -8.31984,7.56313 -12.99751,5.31123 -4.64837,-2.23784 -6.42262,-8.20169 -4.00287,-13.37927 0.35982,-0.74562 0.83385,-1.82915 1.20654,-2.53466 1.55738,-2.94849 3.32363,-4.94851 5.0496,-7.5249 3.56447,-5.57664 6.69542,-10.57849 8.52294,-15.31757 0.45904,-1.57381 -0.22031,-3.72975 -0.83674,-5.3234 l 1.70999,-4.10476 c -24.06914,-14.26201 -43.2513,-36.67023 -53.10165,-64.35871 z m 114.84517,4.0439 c -2.86725,0.10533 -5.58733,1.70522 -7.0214,4.38623 h -0.04 l -23.90135,43.21412 c 16.54056,5.63617 34.80708,6.89624 53.1322,2.7355 3.2698,-0.7424 6.46757,-1.6322 9.57732,-2.67464 l -23.96062,-43.29629 h -0.18113 c -0.80122,-1.49798 -2.07513,-2.74681 -3.72296,-3.54032 -1.25693,-0.60533 -2.57912,-0.8725 -3.88256,-0.8246 z"
           sodipodi:nodetypes="sccccccccccsccsscsccccsccssccccccscscsccccsccccccscscccsccccscccscccccccccccccccccccscsccccccccssscccccccssscccccccccccccccscscsccccsccscscscscsccccssscccscccsss" /></g></g></g></svg>
